<?xml version="1.0" encoding="UTF-8" standalone="no"?>
<!-- Created with Inkscape (http://www.inkscape.org/) -->

<svg
   version="1.1"
   id="svg1"
   width="400"
   height="400"
   viewBox="0 0 400 400"
   sodipodi:docname="naylence.svg"
   inkscape:version="1.4.2 (ebf0e940, 2025-05-08)"
   xmlns:inkscape="http://www.inkscape.org/namespaces/inkscape"
   xmlns:sodipodi="http://sodipodi.sourceforge.net/DTD/sodipodi-0.dtd"
   xmlns:xlink="http://www.w3.org/1999/xlink"
   xmlns="http://www.w3.org/2000/svg"
   xmlns:svg="http://www.w3.org/2000/svg">
  <defs
     id="defs1">
    <linearGradient
       id="linearGradient1"
       inkscape:collect="always">
      <stop
         style="stop-color:#0a706f;stop-opacity:1;"
         offset="0"
         id="stop1" />
      <stop
         style="stop-color:#14a192;stop-opacity:1;"
         offset="1"
         id="stop2" />
    </linearGradient>
    <linearGradient
       inkscape:collect="always"
       xlink:href="#linearGradient1"
       id="linearGradient2"
       x1="202.07256"
       y1="322.11292"
       x2="202.07256"
       y2="86.390778"
       gradientUnits="userSpaceOnUse"
       gradientTransform="matrix(1.230262,0,0,1.230262,-47.303759,-48.461625)" />
  </defs>
  <sodipodi:namedview
     id="namedview1"
     pagecolor="#ffffff"
     bordercolor="#000000"
     borderopacity="0.25"
     inkscape:showpageshadow="2"
     inkscape:pageopacity="0.0"
     inkscape:pagecheckerboard="0"
     inkscape:deskcolor="#d1d1d1"
     inkscape:zoom="1.2180684"
     inkscape:cx="176.91946"
     inkscape:cy="204.42202"
     inkscape:window-width="1560"
     inkscape:window-height="995"
     inkscape:window-x="0"
     inkscape:window-y="38"
     inkscape:window-maximized="0"
     inkscape:current-layer="g1" />
  <g
     inkscape:groupmode="layer"
     inkscape:label="Image"
     id="g1">
    <path
       style="fill:url(#linearGradient2);stroke-width:1.23022"
       d="m 165.07933,393.85375 c -3.67258,-8.50429 -4.82957,-15.34408 -4.13256,-24.43015 1.61798,-21.09263 13.46951,-38.49451 37.82252,-55.53583 16.94091,-11.85463 36.22512,-25.66056 36.88725,-26.40828 0.33827,-0.38212 3.27499,-2.83253 6.52589,-5.44542 34.17269,-27.46626 50.67944,-66.33751 43.26958,-101.89411 -2.59398,-12.44713 -7.2957,-21.24931 -15.97872,-29.91423 -8.47933,-8.4616 -19.69582,-14.55562 -30.86229,-16.76775 -23.36966,-4.62972 -47.24393,13.70704 -47.24393,36.28601 0,4.26826 1.47351,9.70296 4.43719,16.36566 1.91927,4.31466 8.30984,10.25092 11.03551,10.25092 0.96302,0 1.75095,0.61606 1.75095,1.36906 0,2.62465 -16.01736,0.65494 -23.76103,-2.92202 -13.24794,-6.11948 -21.83854,-17.71198 -26.04737,-35.14904 -2.33276,-9.66439 -2.05339,-16.77465 1.14079,-29.03798 6.06357,-23.27971 24.27896,-42.100702 49.28282,-50.921264 6.93192,-2.445329 23.01201,-5.134731 30.70134,-5.134731 7.0252,0 24.22631,3.056784 33.27227,5.912859 14.50876,4.580733 29.13222,13.813115 41.07834,25.934456 6.62028,6.71745 18.58935,22.96479 18.58935,25.23407 0,0.37054 1.34762,3.59528 2.99469,7.16614 4.64848,10.07777 6.82731,17.64947 8.75102,30.41098 2.10836,13.98592 2.24778,24.12303 0.49686,36.12878 -4.79029,32.84689 -18.50112,59.99055 -42.38373,83.90801 -20.40451,20.43425 -35.54248,30.4536 -78.0312,51.64666 -23.68531,11.81399 -34.21416,18.76289 -43.00753,28.38428 -8.22707,9.00166 -11.92024,15.67974 -13.56413,24.52674 -0.91433,4.92105 -0.91433,4.92105 -3.02388,0.036 z M 136.00528,277.08174 C 90.955907,263.56073 62.935556,227.1478 57.083842,174.52207 51.001234,119.81981 80.760764,59.428556 128.5965,29.400489 c 13.72198,-8.613733 38.3918,-18.45048 43.15104,-17.205904 1.31959,0.345085 -8.04126,2.743252 -8.36471,2.219946 -1.14125,-1.846575 23.661,-6.2841013 39.06588,-6.2841013 14.57624,0 22.6799,1.1225426 43.08134,5.9678013 7.43495,1.765763 27.87453,11.268393 35.05162,16.295919 3.77032,2.641127 7.27243,4.802047 7.78242,4.802047 1.26614,0 21.07029,19.270052 25.2872,24.605238 1.8719,2.368261 4.47122,6.243579 5.77633,8.611835 1.30514,2.368256 3.05926,5.392183 3.89799,6.719812 5.11873,8.102852 6.95042,11.734125 5.91889,11.734125 -0.64521,0 -1.4681,-0.477243 -1.82858,-1.060665 -0.82026,-1.327079 -18.1107,-14.450478 -24.71211,-18.756368 -7.02868,-4.584514 -17.76629,-10.939521 -18.48385,-10.939521 -0.33547,0 -2.9569,-1.03143 -5.82527,-2.292066 -18.80065,-8.262818 -26.49614,-10.101498 -45.66329,-10.910255 -20.77134,-0.876443 -32.59834,1.016621 -49.97614,7.999315 -26.38492,10.601932 -46.42835,32.284497 -55.52909,60.070293 -4.06797,12.41995 -4.05971,36.57818 0.0168,49.70495 7.59607,24.45971 26.18349,43.34654 49.9761,50.78113 12.50372,3.90715 34.66829,3.83698 46.67007,-0.14782 4.6926,-1.55795 9.8882,-3.8995 11.54582,-5.20339 1.65761,-1.30387 3.49281,-2.37072 4.07825,-2.37072 1.91249,0 1.12408,6.21354 -2.16273,17.04577 -3.92904,12.94887 -5.89232,16.91186 -13.56804,27.38797 -10.57224,14.42962 -23.30045,23.40469 -41.02723,28.92977 -12.81363,3.99373 -33.39915,3.98321 -46.74998,-0.0238 z m 44.524,-33.68578 c 7.47236,-2.52672 13.94197,-6.20323 12.84538,-7.29983 -0.36659,-0.36659 -5.10656,-0.0172 -10.53342,0.77625 -20.71576,3.02904 -46.88489,-3.61806 -65.46886,-16.62953 -16.41379,-11.49194 -28.628293,-26.14142 -38.230608,-45.85186 -3.479275,-7.14171 -6.53371,-12.36159 -6.787663,-11.59976 -0.253943,0.76183 0.963322,6.05716 2.705033,11.76737 11.125937,36.47613 34.502208,61.58383 65.063768,69.8831 11.10223,3.01488 29.83092,2.53019 40.40637,-1.04574 z"
       id="path1"
       sodipodi:nodetypes="ssssssssssssssssssssssssssssscssssssssssssssssssscsssssssccsssssssss" />
  </g>
</svg>
